<?xml version="1.0" encoding="utf-8"?>
<!-- Generator: Adobe Illustrator 16.0.0, SVG Export Plug-In . SVG Version: 6.00 Build 0)  -->
<!DOCTYPE svg PUBLIC "-//W3C//DTD SVG 1.1//EN" "http://www.w3.org/Graphics/SVG/1.1/DTD/svg11.dtd">
<svg version="1.1" id="Layer_1" xmlns="http://www.w3.org/2000/svg" xmlns:xlink="http://www.w3.org/1999/xlink" x="0px" y="0px"
	 width="50px" height="50px" viewBox="0 0 1000 1000" enable-background="new 0 0 1000 1000" xml:space="preserve">
<g>
	<path fill="#FF9922" d="M798.941,308.534c0-0.012,0-0.017,0-0.028c0-167.797-136.028-303.824-303.831-303.824
		c-167.797,0-303.825,136.027-303.825,303.824c0,0-26.042,321.181,303.825,685.784C824.371,630.369,799.039,309.733,798.941,308.534
		z M495.115,568.165c-136.588,0-247.315-110.725-247.315-247.314c0-136.59,110.728-247.315,247.315-247.315
		c136.593,0,247.316,110.725,247.316,247.315C742.432,457.44,631.708,568.165,495.115,568.165z"/>
	<g display="none">
		<path display="inline" fill="#FF9922" d="M621.747,278.458h-44.721v109.685h44.721V278.458z M610.514,298.672
			c0,4.734-3.839,8.571-8.572,8.571s-8.571-3.837-8.571-8.571c0-4.734,3.838-8.57,8.571-8.57S610.514,293.938,610.514,298.672z"/>
		<path display="inline" fill="#FF9922" d="M361.242,324.022c1.983,10.417,14.144,16.958,27.756,15.307
			c-8.358,2.182-16.055,9.423-16.055,17.965c0,11.991,9.666,19.047,19.458,18.601l1.869-0.238
			c-8.475,4.085-14.011,10.493-12.536,18.248c1.743,9.151,7.535,12.45,23.416,11.286c94.514-0.996,116.694-13.242,121.345-14.989
			l43.824-2.059V278.458l-43.824-7.842c-0.497-0.996-2.894-5.545-3.149-5.823c-3.118-5.277-6.313-9.562-8.691-12.165
			c-13.489-14.752-25.042-13.201-33.528-29.758c-15.22-58.611-39.818-57.886-46.227-20.934c0,33.572,13.541,56.237,13.541,56.237
			s-84.781-2.038-87.374,24.556c0,9.497,8.599,17.473,20.222,19.695c0.375,0.091,0.751,0.18,1.135,0.242
			C369.425,306,359.31,313.859,361.242,324.022z M392.543,338.728c0.067-0.012,0.123-0.022,0.187-0.041l0.406-0.017
			C392.941,338.675,392.738,338.711,392.543,338.728z"/>
	</g>
</g>
<path fill="#484548" d="M524.578,164.9h-23.575c2.284-9.126,6.085-19.014,9.888-22.815c5.323-5.324,7.606-27.379-15.971-25.097l0,0
	c-12.17-1.521-22.057,8.365-21.295,20.535l1.521,27.378h-12.168c-85.178,0-155.146,69.966-155.146,155.144v3.042
	c0,85.178,69.967,155.145,155.146,155.145h61.601c85.18,0,155.146-69.967,155.146-155.145v-3.042
	C680.482,234.866,610.52,164.9,524.578,164.9z M365.63,303.313l33.464-58.561c3.802-6.844,13.688-6.844,17.49,0l33.464,58.561
	c3.802,6.844-0.762,15.209-9.126,15.209h-66.926C366.393,318.522,361.829,310.157,365.63,303.313z M534.464,409.022v-17.49h-22.812
	v26.617c-7.608,2.282-15.212,3.045-22.818,3.045c-15.21,0-27.38-3.803-38.786-9.127v-25.859h-22.815v11.409
	c-13.69-10.647-23.577-22.056-30.42-25.099c-6.085-3.042,27.378-2.279,66.924-1.52v24.335h22.814v-24.335
	c46.394,0.76,93.547,2.28,93.547,1.52C580.099,373.278,561.842,394.575,534.464,409.022z M602.152,318.522h-66.927
	c-7.604,0-12.93-8.365-9.126-15.209l33.465-58.561c3.801-6.844,13.686-6.844,17.49,0l33.465,58.561
	C615.079,310.157,609.758,318.522,602.152,318.522z"/>
</svg>
